<mxfile host="app.diagrams.net" modified="2020-09-18T16:08:49.436Z" agent="5.0 (Windows NT 10.0; Win64; x64) AppleWebKit/537.36 (KHTML, like Gecko) Chrome/85.0.4183.102 Safari/537.36 Edg/85.0.564.51" etag="xkk4TLhcqJk5P-Bazjmh" version="13.7.3" type="github">
  <diagram name="Page-1" id="2a216829-ef6e-dabb-86c1-c78162f3ba2b">
    <mxGraphModel dx="1278" dy="532" grid="1" gridSize="10" guides="1" tooltips="1" connect="1" arrows="1" fold="1" page="1" pageScale="1" pageWidth="1100" pageHeight="850" background="#ffffff" math="0" shadow="0">
      <root>
        <mxCell id="0" />
        <mxCell id="1" parent="0" />
        <mxCell id="cdl7iaLPo2ihgi0OGeSs-6" value="Start" style="shape=mxgraph.bpmn.shape;html=1;verticalLabelPosition=bottom;labelBackgroundColor=#ffffff;verticalAlign=top;align=center;perimeter=ellipsePerimeter;outlineConnect=0;outline=standard;symbol=general;" parent="1" vertex="1">
          <mxGeometry x="50" y="70" width="50" height="50" as="geometry" />
        </mxCell>
        <mxCell id="cdl7iaLPo2ihgi0OGeSs-7" value="" style="endArrow=block;endFill=1;endSize=6;html=1;exitX=1;exitY=0.5;exitDx=0;exitDy=0;" parent="1" source="cdl7iaLPo2ihgi0OGeSs-6" edge="1">
          <mxGeometry width="100" relative="1" as="geometry">
            <mxPoint x="380" y="300" as="sourcePoint" />
            <mxPoint x="160" y="95" as="targetPoint" />
          </mxGeometry>
        </mxCell>
        <mxCell id="cdl7iaLPo2ihgi0OGeSs-9" value="" style="endArrow=block;endFill=1;endSize=6;html=1;exitX=1;exitY=0.5;exitDx=0;exitDy=0;" parent="1" edge="1">
          <mxGeometry width="100" relative="1" as="geometry">
            <mxPoint x="280" y="95" as="sourcePoint" />
            <mxPoint x="365" y="95" as="targetPoint" />
          </mxGeometry>
        </mxCell>
        <mxCell id="pvFC6_-XwpLg9ONSk4Xd-11" style="edgeStyle=orthogonalEdgeStyle;rounded=0;orthogonalLoop=1;jettySize=auto;html=1;" parent="1" target="pvFC6_-XwpLg9ONSk4Xd-10" edge="1">
          <mxGeometry relative="1" as="geometry">
            <mxPoint x="485" y="95" as="sourcePoint" />
          </mxGeometry>
        </mxCell>
        <mxCell id="cdl7iaLPo2ihgi0OGeSs-13" value="" style="startArrow=oval;startFill=0;startSize=7;endArrow=block;endFill=0;endSize=10;dashed=1;html=1;exitX=0.5;exitY=1;exitDx=0;exitDy=0;entryX=0.5;entryY=0;entryDx=0;entryDy=0;" parent="1" edge="1">
          <mxGeometry width="100" relative="1" as="geometry">
            <mxPoint x="425" y="135" as="sourcePoint" />
            <mxPoint x="425" y="210" as="targetPoint" />
          </mxGeometry>
        </mxCell>
        <mxCell id="cdl7iaLPo2ihgi0OGeSs-14" value="" style="endArrow=block;endFill=1;endSize=6;html=1;exitX=1;exitY=0.5;exitDx=0;exitDy=0;" parent="1" edge="1">
          <mxGeometry width="100" relative="1" as="geometry">
            <mxPoint x="450" y="235" as="sourcePoint" />
            <mxPoint x="500" y="235" as="targetPoint" />
          </mxGeometry>
        </mxCell>
        <mxCell id="cdl7iaLPo2ihgi0OGeSs-15" value="Inisasi File" style="shape=ext;rounded=1;html=1;whiteSpace=wrap;" parent="1" vertex="1">
          <mxGeometry x="500" y="207.5" width="82.5" height="55" as="geometry" />
        </mxCell>
        <mxCell id="cdl7iaLPo2ihgi0OGeSs-17" value="" style="startArrow=oval;startFill=0;startSize=7;endArrow=block;endFill=0;endSize=10;dashed=1;html=1;exitX=1;exitY=0.5;exitDx=0;exitDy=0;" parent="1" source="cdl7iaLPo2ihgi0OGeSs-15" target="cdl7iaLPo2ihgi0OGeSs-18" edge="1">
          <mxGeometry width="100" relative="1" as="geometry">
            <mxPoint x="380" y="300" as="sourcePoint" />
            <mxPoint x="650" y="235" as="targetPoint" />
          </mxGeometry>
        </mxCell>
        <mxCell id="cdl7iaLPo2ihgi0OGeSs-18" value="" style="shape=note;whiteSpace=wrap;size=16;html=1;dropTarget=0;" parent="1" vertex="1">
          <mxGeometry x="630" y="205" width="40" height="60" as="geometry" />
        </mxCell>
        <mxCell id="cdl7iaLPo2ihgi0OGeSs-19" value="" style="html=1;shape=singleArrow;arrowWidth=0.4;arrowSize=0.4;outlineConnect=0;" parent="cdl7iaLPo2ihgi0OGeSs-18" vertex="1">
          <mxGeometry width="14" height="14" relative="1" as="geometry">
            <mxPoint x="2" y="2" as="offset" />
          </mxGeometry>
        </mxCell>
        <mxCell id="cdl7iaLPo2ihgi0OGeSs-20" value="" style="html=1;whiteSpace=wrap;shape=parallelMarker;outlineConnect=0;" parent="cdl7iaLPo2ihgi0OGeSs-18" vertex="1">
          <mxGeometry x="0.5" y="1" width="14" height="14" relative="1" as="geometry">
            <mxPoint x="-7" y="-14" as="offset" />
          </mxGeometry>
        </mxCell>
        <mxCell id="pvFC6_-XwpLg9ONSk4Xd-5" style="edgeStyle=orthogonalEdgeStyle;rounded=0;orthogonalLoop=1;jettySize=auto;html=1;" parent="1" source="cdl7iaLPo2ihgi0OGeSs-21" target="cdl7iaLPo2ihgi0OGeSs-24" edge="1">
          <mxGeometry relative="1" as="geometry" />
        </mxCell>
        <mxCell id="cdl7iaLPo2ihgi0OGeSs-21" value="" style="shape=mxgraph.bpmn.shape;html=1;verticalLabelPosition=bottom;labelBackgroundColor=#ffffff;verticalAlign=top;align=center;perimeter=rhombusPerimeter;background=gateway;outlineConnect=0;outline=none;symbol=parallelGw;" parent="1" vertex="1">
          <mxGeometry x="400" y="310" width="50" height="50" as="geometry" />
        </mxCell>
        <mxCell id="cdl7iaLPo2ihgi0OGeSs-22" value="" style="endArrow=block;endFill=1;endSize=6;html=1;exitX=0.5;exitY=1;exitDx=0;exitDy=0;entryX=0.5;entryY=0;entryDx=0;entryDy=0;" parent="1" target="cdl7iaLPo2ihgi0OGeSs-21" edge="1">
          <mxGeometry width="100" relative="1" as="geometry">
            <mxPoint x="425" y="260" as="sourcePoint" />
            <mxPoint x="480" y="300" as="targetPoint" />
          </mxGeometry>
        </mxCell>
        <mxCell id="cdl7iaLPo2ihgi0OGeSs-25" value="" style="startArrow=oval;startFill=0;startSize=7;endArrow=block;endFill=0;endSize=10;dashed=1;html=1;exitX=0.5;exitY=1;exitDx=0;exitDy=0;entryX=0.5;entryY=0;entryDx=0;entryDy=0;exitPerimeter=0;" parent="1" source="cdl7iaLPo2ihgi0OGeSs-18" target="cdl7iaLPo2ihgi0OGeSs-24" edge="1">
          <mxGeometry width="100" relative="1" as="geometry">
            <mxPoint x="380" y="400" as="sourcePoint" />
            <mxPoint x="480" y="400" as="targetPoint" />
          </mxGeometry>
        </mxCell>
        <mxCell id="cdl7iaLPo2ihgi0OGeSs-28" value="" style="endArrow=block;endFill=1;endSize=6;html=1;exitX=0.5;exitY=1;exitDx=0;exitDy=0;entryX=0.5;entryY=0;entryDx=0;entryDy=0;" parent="1" source="cdl7iaLPo2ihgi0OGeSs-21" target="cdl7iaLPo2ihgi0OGeSs-27" edge="1">
          <mxGeometry width="100" relative="1" as="geometry">
            <mxPoint x="380" y="490" as="sourcePoint" />
            <mxPoint x="480" y="490" as="targetPoint" />
          </mxGeometry>
        </mxCell>
        <mxCell id="cdl7iaLPo2ihgi0OGeSs-33" value="Organisasi" style="swimlane;html=1;childLayout=stackLayout;resizeParent=1;resizeParentMax=0;horizontal=0;startSize=20;horizontalStack=0;" parent="1" vertex="1">
          <mxGeometry x="30" y="185" width="1060" height="360" as="geometry" />
        </mxCell>
        <mxCell id="cdl7iaLPo2ihgi0OGeSs-34" value="Divisi Sales" style="swimlane;html=1;startSize=20;horizontal=0;" parent="cdl7iaLPo2ihgi0OGeSs-33" vertex="1">
          <mxGeometry x="20" width="1040" height="180" as="geometry" />
        </mxCell>
        <mxCell id="pvFC6_-XwpLg9ONSk4Xd-18" value="Pemesanan" style="text;html=1;strokeColor=none;fillColor=none;align=center;verticalAlign=middle;whiteSpace=wrap;rounded=0;" parent="cdl7iaLPo2ihgi0OGeSs-34" vertex="1">
          <mxGeometry x="640" y="45" width="40" height="20" as="geometry" />
        </mxCell>
        <mxCell id="YunMnRFhj4Z7oiku-1ot-1" value="Memesan&lt;br&gt;Perjalanan" style="text;html=1;strokeColor=none;fillColor=none;align=center;verticalAlign=middle;whiteSpace=wrap;rounded=0;" vertex="1" parent="cdl7iaLPo2ihgi0OGeSs-34">
          <mxGeometry x="300" y="45" width="40" height="20" as="geometry" />
        </mxCell>
        <mxCell id="cdl7iaLPo2ihgi0OGeSs-24" value="Cek Ketersediaan" style="shape=ext;rounded=1;html=1;whiteSpace=wrap;" parent="cdl7iaLPo2ihgi0OGeSs-34" vertex="1">
          <mxGeometry x="558.75" y="120" width="82.5" height="55" as="geometry" />
        </mxCell>
        <mxCell id="YunMnRFhj4Z7oiku-1ot-2" value="" style="shape=mxgraph.bpmn.shape;html=1;verticalLabelPosition=bottom;labelBackgroundColor=#ffffff;verticalAlign=top;align=center;perimeter=ellipsePerimeter;outlineConnect=0;outline=standard;symbol=message;" vertex="1" parent="cdl7iaLPo2ihgi0OGeSs-34">
          <mxGeometry x="350" y="25" width="50" height="50" as="geometry" />
        </mxCell>
        <mxCell id="cdl7iaLPo2ihgi0OGeSs-35" value="Divisi Administrasi" style="swimlane;html=1;startSize=20;horizontal=0;" parent="cdl7iaLPo2ihgi0OGeSs-33" vertex="1">
          <mxGeometry x="20" y="180" width="1040" height="180" as="geometry" />
        </mxCell>
        <mxCell id="cdl7iaLPo2ihgi0OGeSs-27" value="Cek Solvensi" style="shape=ext;rounded=1;html=1;whiteSpace=wrap;" parent="cdl7iaLPo2ihgi0OGeSs-35" vertex="1">
          <mxGeometry x="315" y="55" width="120" height="80" as="geometry" />
        </mxCell>
        <mxCell id="pvFC6_-XwpLg9ONSk4Xd-1" value="Klien" style="swimlane;startSize=20;horizontal=0;" parent="1" vertex="1">
          <mxGeometry x="20" y="35" width="1070" height="120" as="geometry" />
        </mxCell>
        <mxCell id="YunMnRFhj4Z7oiku-1ot-3" value="Pemilihan Perjalanan" style="html=1;whiteSpace=wrap;rounded=1;dropTarget=0;" vertex="1" parent="pvFC6_-XwpLg9ONSk4Xd-1">
          <mxGeometry x="140" y="20" width="120" height="80" as="geometry" />
        </mxCell>
        <mxCell id="YunMnRFhj4Z7oiku-1ot-4" value="" style="html=1;shape=mxgraph.bpmn.user_task;outlineConnect=0;" vertex="1" parent="YunMnRFhj4Z7oiku-1ot-3">
          <mxGeometry width="14" height="14" relative="1" as="geometry">
            <mxPoint x="7" y="7" as="offset" />
          </mxGeometry>
        </mxCell>
        <mxCell id="YunMnRFhj4Z7oiku-1ot-5" value="" style="html=1;shape=plus;outlineConnect=0;" vertex="1" parent="YunMnRFhj4Z7oiku-1ot-3">
          <mxGeometry x="0.5" y="1" width="14" height="14" relative="1" as="geometry">
            <mxPoint x="-7" y="-14" as="offset" />
          </mxGeometry>
        </mxCell>
        <mxCell id="YunMnRFhj4Z7oiku-1ot-6" value="Menempatkan Pemesanan" style="html=1;whiteSpace=wrap;rounded=1;dropTarget=0;" vertex="1" parent="pvFC6_-XwpLg9ONSk4Xd-1">
          <mxGeometry x="345" y="20" width="120" height="80" as="geometry" />
        </mxCell>
        <mxCell id="YunMnRFhj4Z7oiku-1ot-7" value="" style="html=1;shape=mxgraph.bpmn.user_task;outlineConnect=0;" vertex="1" parent="YunMnRFhj4Z7oiku-1ot-6">
          <mxGeometry width="14" height="14" relative="1" as="geometry">
            <mxPoint x="7" y="7" as="offset" />
          </mxGeometry>
        </mxCell>
        <mxCell id="YunMnRFhj4Z7oiku-1ot-8" value="" style="html=1;shape=plus;outlineConnect=0;" vertex="1" parent="YunMnRFhj4Z7oiku-1ot-6">
          <mxGeometry x="0.5" y="1" width="14" height="14" relative="1" as="geometry">
            <mxPoint x="-7" y="-14" as="offset" />
          </mxGeometry>
        </mxCell>
        <mxCell id="pvFC6_-XwpLg9ONSk4Xd-8" style="edgeStyle=orthogonalEdgeStyle;rounded=0;orthogonalLoop=1;jettySize=auto;html=1;entryX=0;entryY=0.5;entryDx=0;entryDy=0;" parent="1" source="pvFC6_-XwpLg9ONSk4Xd-2" target="pvFC6_-XwpLg9ONSk4Xd-7" edge="1">
          <mxGeometry relative="1" as="geometry" />
        </mxCell>
        <mxCell id="pvFC6_-XwpLg9ONSk4Xd-2" value="" style="shape=mxgraph.bpmn.shape;html=1;verticalLabelPosition=bottom;labelBackgroundColor=#ffffff;verticalAlign=top;align=center;perimeter=rhombusPerimeter;background=gateway;outlineConnect=0;outline=none;symbol=parallelGw;" parent="1" vertex="1">
          <mxGeometry x="740" y="310" width="50" height="50" as="geometry" />
        </mxCell>
        <mxCell id="pvFC6_-XwpLg9ONSk4Xd-4" style="edgeStyle=orthogonalEdgeStyle;rounded=0;orthogonalLoop=1;jettySize=auto;html=1;entryX=0;entryY=0.5;entryDx=0;entryDy=0;" parent="1" source="cdl7iaLPo2ihgi0OGeSs-24" target="pvFC6_-XwpLg9ONSk4Xd-2" edge="1">
          <mxGeometry relative="1" as="geometry" />
        </mxCell>
        <mxCell id="pvFC6_-XwpLg9ONSk4Xd-6" style="edgeStyle=orthogonalEdgeStyle;rounded=0;orthogonalLoop=1;jettySize=auto;html=1;entryX=0.5;entryY=1;entryDx=0;entryDy=0;" parent="1" source="cdl7iaLPo2ihgi0OGeSs-27" target="pvFC6_-XwpLg9ONSk4Xd-2" edge="1">
          <mxGeometry relative="1" as="geometry" />
        </mxCell>
        <mxCell id="pvFC6_-XwpLg9ONSk4Xd-21" style="edgeStyle=orthogonalEdgeStyle;rounded=0;orthogonalLoop=1;jettySize=auto;html=1;entryX=0.5;entryY=0;entryDx=0;entryDy=0;" parent="1" source="pvFC6_-XwpLg9ONSk4Xd-7" target="pvFC6_-XwpLg9ONSk4Xd-17" edge="1">
          <mxGeometry relative="1" as="geometry" />
        </mxCell>
        <mxCell id="pvFC6_-XwpLg9ONSk4Xd-25" style="edgeStyle=orthogonalEdgeStyle;rounded=0;orthogonalLoop=1;jettySize=auto;html=1;entryX=0;entryY=0.5;entryDx=0;entryDy=0;" parent="1" source="pvFC6_-XwpLg9ONSk4Xd-7" target="pvFC6_-XwpLg9ONSk4Xd-23" edge="1">
          <mxGeometry relative="1" as="geometry" />
        </mxCell>
        <mxCell id="pvFC6_-XwpLg9ONSk4Xd-7" value="Pemesanan Perjalanan" style="shape=ext;rounded=1;html=1;whiteSpace=wrap;" parent="1" vertex="1">
          <mxGeometry x="830" y="307.5" width="82.5" height="55" as="geometry" />
        </mxCell>
        <mxCell id="pvFC6_-XwpLg9ONSk4Xd-9" value="" style="startArrow=oval;startFill=0;startSize=7;endArrow=block;endFill=0;endSize=10;dashed=1;html=1;exitX=0.5;exitY=0;exitDx=0;exitDy=0;" parent="1" source="pvFC6_-XwpLg9ONSk4Xd-7" target="pvFC6_-XwpLg9ONSk4Xd-10" edge="1">
          <mxGeometry width="100" relative="1" as="geometry">
            <mxPoint x="690" y="260" as="sourcePoint" />
            <mxPoint x="790" y="260" as="targetPoint" />
          </mxGeometry>
        </mxCell>
        <mxCell id="pvFC6_-XwpLg9ONSk4Xd-13" style="edgeStyle=orthogonalEdgeStyle;rounded=0;orthogonalLoop=1;jettySize=auto;html=1;entryX=0;entryY=0.5;entryDx=0;entryDy=0;" parent="1" source="pvFC6_-XwpLg9ONSk4Xd-10" target="pvFC6_-XwpLg9ONSk4Xd-12" edge="1">
          <mxGeometry relative="1" as="geometry" />
        </mxCell>
        <mxCell id="pvFC6_-XwpLg9ONSk4Xd-10" value="Cek Konfirmasi" style="shape=ext;rounded=1;html=1;whiteSpace=wrap;" parent="1" vertex="1">
          <mxGeometry x="811.25" y="55" width="120" height="80" as="geometry" />
        </mxCell>
        <mxCell id="pvFC6_-XwpLg9ONSk4Xd-12" value="End" style="shape=mxgraph.bpmn.shape;html=1;verticalLabelPosition=bottom;labelBackgroundColor=#ffffff;verticalAlign=top;align=center;perimeter=ellipsePerimeter;outlineConnect=0;outline=end;symbol=general;" parent="1" vertex="1">
          <mxGeometry x="1030" y="70" width="50" height="50" as="geometry" />
        </mxCell>
        <mxCell id="pvFC6_-XwpLg9ONSk4Xd-14" value="" style="shape=note;whiteSpace=wrap;size=16;html=1;dropTarget=0;" parent="1" vertex="1">
          <mxGeometry x="780" y="410" width="40" height="60" as="geometry" />
        </mxCell>
        <mxCell id="pvFC6_-XwpLg9ONSk4Xd-15" value="" style="html=1;shape=singleArrow;arrowWidth=0.4;arrowSize=0.4;outlineConnect=0;" parent="pvFC6_-XwpLg9ONSk4Xd-14" vertex="1">
          <mxGeometry width="14" height="14" relative="1" as="geometry">
            <mxPoint x="2" y="2" as="offset" />
          </mxGeometry>
        </mxCell>
        <mxCell id="pvFC6_-XwpLg9ONSk4Xd-16" value="" style="html=1;whiteSpace=wrap;shape=parallelMarker;outlineConnect=0;" parent="pvFC6_-XwpLg9ONSk4Xd-14" vertex="1">
          <mxGeometry x="0.5" y="1" width="14" height="14" relative="1" as="geometry">
            <mxPoint x="-7" y="-14" as="offset" />
          </mxGeometry>
        </mxCell>
        <mxCell id="pvFC6_-XwpLg9ONSk4Xd-24" style="edgeStyle=orthogonalEdgeStyle;rounded=0;orthogonalLoop=1;jettySize=auto;html=1;entryX=0.5;entryY=1;entryDx=0;entryDy=0;" parent="1" source="pvFC6_-XwpLg9ONSk4Xd-17" target="pvFC6_-XwpLg9ONSk4Xd-23" edge="1">
          <mxGeometry relative="1" as="geometry" />
        </mxCell>
        <mxCell id="pvFC6_-XwpLg9ONSk4Xd-17" value="Tagihan" style="shape=ext;rounded=1;html=1;whiteSpace=wrap;" parent="1" vertex="1">
          <mxGeometry x="830" y="480" width="82.5" height="55" as="geometry" />
        </mxCell>
        <mxCell id="pvFC6_-XwpLg9ONSk4Xd-20" value="Pemesanan" style="text;html=1;strokeColor=none;fillColor=none;align=center;verticalAlign=middle;whiteSpace=wrap;rounded=0;" parent="1" vertex="1">
          <mxGeometry x="771.25" y="470" width="40" height="20" as="geometry" />
        </mxCell>
        <mxCell id="pvFC6_-XwpLg9ONSk4Xd-22" value="" style="endArrow=none;dashed=1;html=1;exitX=0;exitY=0;exitDx=40;exitDy=38;exitPerimeter=0;" parent="1" source="pvFC6_-XwpLg9ONSk4Xd-14" edge="1">
          <mxGeometry width="50" height="50" relative="1" as="geometry">
            <mxPoint x="690" y="460" as="sourcePoint" />
            <mxPoint x="870" y="448" as="targetPoint" />
          </mxGeometry>
        </mxCell>
        <mxCell id="pvFC6_-XwpLg9ONSk4Xd-23" value="End" style="shape=mxgraph.bpmn.shape;html=1;verticalLabelPosition=bottom;labelBackgroundColor=#ffffff;verticalAlign=top;align=center;perimeter=ellipsePerimeter;outlineConnect=0;outline=end;symbol=general;" parent="1" vertex="1">
          <mxGeometry x="1030" y="310" width="50" height="50" as="geometry" />
        </mxCell>
      </root>
    </mxGraphModel>
  </diagram>
</mxfile>
